<svg xmlns="http://www.w3.org/2000/svg" id="logosandtypes_com" data-name="logosandtypes com" viewBox="0 0 150 150"><defs><style>.cls-1{fill:none;}.cls-2{fill:#25c2a0;}</style></defs><g id="Layer_2" data-name="Layer 2"><path id="Layer_3" data-name="Layer 3" class="cls-1" d="M0,.2H150v150H0Z" transform="translate(0 -0.2)"/></g><path class="cls-2" d="M80.39,120.64A45.71,45.71,0,0,1,43.53,102l28-24.75,8.85,15.63,54.19-48.56A63.25,63.25,0,1,0,27.88,111.93L17.8,124.78l11.86-10.5a63.26,63.26,0,0,0,104.43-8.09L121.37,95.26A45.77,45.77,0,0,1,80.39,120.64ZM34.62,74.87a45.75,45.75,0,0,1,76.94-33.49L84.41,65.19,76.14,50.4,40,96.45A45.6,45.6,0,0,1,34.62,74.87Z" transform="translate(0 -0.2)"/></svg>